<?xml version="1.0" encoding="utf-8"?> <!-- Generator: IcoMoon.io --> <!DOCTYPE svg PUBLIC "-//W3C//DTD SVG 1.1//EN" "http://www.w3.org/Graphics/SVG/1.1/DTD/svg11.dtd"> <svg width="32" height="32" viewBox="0 0 32 32" xmlns="http://www.w3.org/2000/svg" xmlns:xlink="http://www.w3.org/1999/xlink" fill="#000000"><g><path d="M 16,0C 7.163,0,0,7.163,0,16s 7.163,16, 16,16s 16-7.163, 16-16S 24.837,0, 16,0z M 16,29 c-7.18,0-13-5.82-13-13S 8.82,3, 16,3s 13,5.82, 13,13S 23.18,29, 16,29zM 25.414,14.586l-8-8c-0.781-0.781-2.047-0.781-2.828,0c-0.781,0.781-0.781,2.047,0,2.828L 19.172,14 L 8,14 c-1.105,0-2,0.895-2,2c0,1.105, 0.895,2, 2,2l 11.172,0 l-4.586,4.586c-0.781,0.781-0.781,2.047,0,2.829 C 14.976,25.805, 15.488,26, 16,26s 1.024-0.195, 1.414-0.586l 8-8C 26.195,16.633, 26.195,15.367, 25.414,14.586z"></path></g></svg>