<?xml version="1.0" encoding="utf-8"?> <!-- Generator: IcoMoon.io --> <!DOCTYPE svg PUBLIC "-//W3C//DTD SVG 1.1//EN" "http://www.w3.org/Graphics/SVG/1.1/DTD/svg11.dtd"> <svg width="32" height="32" viewBox="0 0 32 32" xmlns="http://www.w3.org/2000/svg" xmlns:xlink="http://www.w3.org/1999/xlink" fill="#000000"><g><path d="M 19.414,27.414l 10-10c 0.781-0.781, 0.781-2.047,0-2.828l-10-10c-0.781-0.781-2.047-0.781-2.828,0 c-0.781,0.781-0.781,2.047,0,2.828L 23.172,14L 4,14 c-1.105,0-2,0.895-2,2s 0.895,2, 2,2l 19.172,0 L 16.586,24.586 C 16.195,24.976, 16,25.488, 16,26s 0.195,1.024, 0.586,1.414C 17.367,28.195, 18.633,28.195, 19.414,27.414z"></path></g></svg>