<?xml version="1.0" encoding="utf-8"?> <!-- Generator: IcoMoon.io --> <!DOCTYPE svg PUBLIC "-//W3C//DTD SVG 1.1//EN" "http://www.w3.org/Graphics/SVG/1.1/DTD/svg11.dtd"> <svg width="32" height="32" viewBox="0 0 32 32" xmlns="http://www.w3.org/2000/svg" xmlns:xlink="http://www.w3.org/1999/xlink" fill="#000000"><g><path d="M 12.586,4.586l-10,10c-0.781,0.781-0.781,2.047,0,2.828l 10,10c 0.781,0.781, 2.047,0.781, 2.828,0 c 0.781-0.781, 0.781-2.047,0-2.828L 8.828,18L 28,18 c 1.105,0, 2-0.895, 2-2c0-1.105-0.895-2-2-2L 8.828,14 l 6.586-6.586 C 15.805,7.024, 16,6.512, 16,6s-0.195-1.024-0.586-1.414C 14.633,3.805, 13.367,3.805, 12.586,4.586z"></path></g></svg>