<?xml version="1.0" encoding="utf-8"?> <!-- Generator: IcoMoon.io --> <!DOCTYPE svg PUBLIC "-//W3C//DTD SVG 1.1//EN" "http://www.w3.org/Graphics/SVG/1.1/DTD/svg11.dtd"> <svg width="32.046875" height="32" viewBox="0 0 32.046875 32" xmlns="http://www.w3.org/2000/svg" xmlns:xlink="http://www.w3.org/1999/xlink" fill="#000000"><g><path d="M 32.047,25c0-9-8-7-8-14c0-0.58-0.056-1.076-0.158-1.498c-0.526-3.532-2.88-6.366-5.93-7.23 c 0.027-0.123, 0.041-0.251, 0.041-0.382C 18,0.851, 17.1,0, 16,0c-1.1,0-2,0.851-2,1.891c0,0.131, 0.014,0.258, 0.041,0.382 c-3.421,0.969-5.966,4.416-6.039,8.545c-0.001,0.060-0.002,0.121-0.002,0.183C 8,18,0,16,0,25 c0,2.382, 5.331,4.375, 12.468,4.878C 13.14,31.14, 14.47,32, 16,32s 2.86-0.86, 3.532-2.123 C 26.669,29.375, 32,27.382, 32,25c0-0.007-0.001-0.014-0.001-0.021L 32.047,25z M 25.82,26.691 c-1.695,0.452-3.692,0.777-5.837,0.958C 19.805,25.604, 18.090,24, 16,24s-3.805,1.604-3.984,3.648 c-2.144-0.18-4.142-0.506-5.837-0.958C 3.848,26.068, 2.733,25.372, 2.325,25c 0.408-0.372, 1.523-1.068, 3.855-1.69 C 8.891,22.586, 12.379,22.188, 16,22.188s 7.109,0.399, 9.82,1.122c 2.332,0.622, 3.447,1.318, 3.855,1.69 C 29.267,25.372, 28.152,26.068, 25.82,26.691z"></path></g></svg>