<?xml version="1.0" encoding="utf-8"?> <!-- Generator: IcoMoon.io --> <!DOCTYPE svg PUBLIC "-//W3C//DTD SVG 1.1//EN" "http://www.w3.org/Graphics/SVG/1.1/DTD/svg11.dtd"> <svg width="32" height="32" viewBox="0 0 32 32" xmlns="http://www.w3.org/2000/svg" xmlns:xlink="http://www.w3.org/1999/xlink" fill="#000000"><g><path d="M0,16c0,8.837, 7.163,16, 16,16c 8.837,0, 16-7.163, 16-16S 24.837,0, 16,0C 7.163,0,0,7.163,0,16z M 28,16 c0,2.289-0.641,4.428-1.753,6.247L 9.753,5.753C 11.572,4.641, 13.711,4, 16,4C 22.627,4, 28,9.373, 28,16z M 4,16 c0-2.289, 0.641-4.427, 1.753-6.247l 16.494,16.494C 20.427,27.359, 18.289,28, 16,28C 9.373,28, 4,22.627, 4,16z"></path></g></svg>