<?xml version="1.0" encoding="utf-8"?> <!-- Generator: IcoMoon.io --> <!DOCTYPE svg PUBLIC "-//W3C//DTD SVG 1.1//EN" "http://www.w3.org/Graphics/SVG/1.1/DTD/svg11.dtd"> <svg width="32" height="32" viewBox="0 0 32 32" xmlns="http://www.w3.org/2000/svg" xmlns:xlink="http://www.w3.org/1999/xlink" fill="#000000"><g><path d="M 26.667,0L 5.333,0 C 2.388,0,0,2.388,0,5.334l0,21.332 C0,29.612, 2.388,32, 5.333,32l 21.334,0 c 2.945,0, 5.333-2.388, 5.333-5.334L 32,5.334C 32,2.388, 29.612,0, 26.667,0z M 28,20.253 C 28,24.534, 24.516,28, 20.205,28L 11.804,28 C 7.496,28, 4,24.534, 4,20.253L 4,11.75 c 0.003-4.281, 3.496-7.75, 7.804-7.75l 3.933,0 C 20.049,4, 23.5,7.219, 23.5,11.5c 0.056,0.803, 0.779,1.5, 1.603,1.5l 0.028,0 l 1.317,0 C 27.31,13, 28,13.904, 28,14.76L 28,20.253 zM 22,20c0,1.1-0.9,2-2,2L 12,22 c-1.1,0-2-0.9-2-2l0,0c0-1.1, 0.9-2, 2-2l 8,0 C 21.1,18, 22,18.9, 22,20 L 22,20zM 18,12c0,1.1-0.9,2-2,2l-4,0 c-1.1,0-2-0.9-2-2l0,0c0-1.1, 0.9-2, 2-2l 4,0 C 17.1,10, 18,10.9, 18,12L 18,12 z"></path></g></svg>