<?xml version="1.0" encoding="utf-8"?> <!-- Generator: IcoMoon.io --> <!DOCTYPE svg PUBLIC "-//W3C//DTD SVG 1.1//EN" "http://www.w3.org/Graphics/SVG/1.1/DTD/svg11.dtd"> <svg width="36" height="32" viewBox="0 0 36 32" xmlns="http://www.w3.org/2000/svg" xmlns:xlink="http://www.w3.org/1999/xlink" fill="#000000"><g><path d="M 34,28.161 C 34,29.583 34.813,30.815 36,31.417 L 36,31.915 C 35.668,31.961 35.329,31.985 34.984,31.985 C 32.859,31.985 30.942,31.093 29.587,29.664 C 28.767,29.882 27.899,30 27,30 C 22.029,30 18,26.418 18,22 C 18,17.582 22.029,14 27,14 C 31.971,14 36,17.582 36,22 C 36,23.73 35.382,25.331 34.333,26.64 C 34.119,27.103 34,27.618 34,28.161 ZM 7.209,6.912 C 5.139,8.593 4,10.755 4,13 C 4,14.259 4.35,15.481 5.039,16.63 C 5.75,17.815 6.82,18.898 8.133,19.763 C 9.081,20.387 9.719,21.386 9.888,22.509 C 9.944,22.884 9.979,23.262 9.993,23.638 C 10.227,23.445 10.454,23.237 10.677,23.014 C 11.432,22.259 12.451,21.842 13.505,21.842 C 13.673,21.842 13.842,21.853 14.010,21.874 C 14.665,21.957 15.333,22 15.997,22 L 15.997,26 C 15.15,26 14.318,25.946 13.505,25.842 C 10.069,29.279 5.966,29.895 2,29.986 L 2,29.145 C 4.142,28.096 6,26.184 6,24 C 6,23.695 5.976,23.396 5.932,23.103 C 2.314,20.72 0,17.080 0,13 C 0,5.82 7.163,0 16,0 C 24.702,0 31.781,5.644 31.995,12.672 C 30.711,12.1 29.312,11.753 27.862,11.654 C 27.501,9.902 26.443,8.254 24.791,6.912 C 23.688,6.015 22.388,5.306 20.928,4.804 C 19.375,4.271 17.717,4 16,4 C 14.283,4 12.625,4.271 11.072,4.804 C 9.612,5.306 8.313,6.015 7.209,6.912 Z"></path></g></svg>