<?xml version="1.0" encoding="utf-8"?> <!-- Generator: IcoMoon.io --> <!DOCTYPE svg PUBLIC "-//W3C//DTD SVG 1.1//EN" "http://www.w3.org/Graphics/SVG/1.1/DTD/svg11.dtd"> <svg width="36" height="32" viewBox="0 0 36 32" xmlns="http://www.w3.org/2000/svg" xmlns:xlink="http://www.w3.org/1999/xlink" fill="#000000"><g><path d="M 34,28.161 C 34,29.583 34.813,30.815 36,31.417 L 36,31.915 C 35.668,31.961 35.329,31.985 34.984,31.985 C 32.859,31.985 30.942,31.093 29.587,29.664 C 28.767,29.882 27.899,30 27,30 C 22.029,30 18,26.418 18,22 C 18,17.582 22.029,14 27,14 C 31.971,14 36,17.582 36,22 C 36,23.73 35.382,25.331 34.333,26.64 C 34.119,27.103 34,27.618 34,28.161 ZM 16,0 C 24.702,0 31.781,5.644 31.995,12.672 C 30.458,11.988 28.758,11.625 27,11.625 C 24.014,11.625 21.193,12.67 19.058,14.568 C 16.844,16.536 15.625,19.175 15.625,22 C 15.625,23.396 15.923,24.747 16.492,25.993 C 16.328,25.997 16.165,26 16,26 C 15.151,26 14.318,25.946 13.505,25.842 C 10.069,29.279 5.966,29.895 2,29.986 L 2,29.145 C 4.142,28.096 6,26.184 6,24 C 6,23.695 5.976,23.396 5.932,23.103 C 2.314,20.72 0,17.080 0,13 C 0,5.82 7.163,0 16,0 Z"></path></g></svg>