<?xml version="1.0" encoding="utf-8"?> <!-- Generator: IcoMoon.io --> <!DOCTYPE svg PUBLIC "-//W3C//DTD SVG 1.1//EN" "http://www.w3.org/Graphics/SVG/1.1/DTD/svg11.dtd"> <svg width="36" height="32" viewBox="0 0 36 32" xmlns="http://www.w3.org/2000/svg" xmlns:xlink="http://www.w3.org/1999/xlink" fill="#000000"><g><path d="M 15,4 C 13.417,4 11.888,4.248 10.457,4.738 C 9.115,5.198 7.922,5.846 6.91,6.665 C 5.033,8.183 4,10.127 4,12.139 C 4,13.264 4.315,14.356 4.935,15.386 C 5.581,16.459 6.557,17.442 7.756,18.228 C 8.707,18.852 9.347,19.852 9.517,20.977 C 9.545,21.164 9.568,21.352 9.585,21.54 C 9.67,21.461 9.755,21.38 9.839,21.297 C 10.593,20.545 11.61,20.131 12.661,20.131 C 12.828,20.131 12.996,20.141 13.164,20.162 C 13.769,20.239 14.387,20.278 15,20.278 C 16.583,20.278 18.112,20.030 19.543,19.54 C 20.885,19.080 22.078,18.432 23.090,17.613 C 24.967,16.095 26,14.151 26,12.139 C 26,10.127 24.967,8.183 23.090,6.665 C 22.078,5.846 20.885,5.198 19.543,4.738 C 18.112,4.248 16.583,4 15,4 Z M 15,0 L 15,0 C 23.284,0 30,5.435 30,12.139 C 30,18.843 23.284,24.278 15,24.278 C 14.204,24.278 13.424,24.227 12.661,24.131 C 9.439,27.34 5.719,27.915 2,28 L 2,27.215 C 4.008,26.235 5.625,24.45 5.625,22.41 C 5.625,22.126 5.603,21.846 5.562,21.573 C 2.169,19.348 0,15.948 0,12.139 C 0,5.435 6.716,0 15,0 ZM 31.125,27.209 C 31.125,28.957 32.26,30.487 34,31.327 L 34,32 C 30.777,31.928 27.819,31.434 25.027,28.684 C 24.366,28.766 23.689,28.81 23,28.81 C 20.017,28.81 17.268,28.005 15.075,26.652 C 19.596,26.637 23.864,25.188 27.101,22.569 C 28.732,21.248 30.019,19.699 30.926,17.964 C 31.887,16.125 32.375,14.165 32.375,12.139 C 32.375,11.813 32.361,11.488 32.336,11.165 C 34.603,13.038 36,15.591 36,18.405 C 36,21.67 34.12,24.584 31.18,26.491 C 31.144,26.726 31.125,26.965 31.125,27.209 Z"></path></g></svg>