<?xml version="1.0" encoding="utf-8"?> <!-- Generator: IcoMoon.io --> <!DOCTYPE svg PUBLIC "-//W3C//DTD SVG 1.1//EN" "http://www.w3.org/Graphics/SVG/1.1/DTD/svg11.dtd"> <svg width="32" height="32" viewBox="0 0 32 32" xmlns="http://www.w3.org/2000/svg" xmlns:xlink="http://www.w3.org/1999/xlink" fill="#000000"><g><path d="M 22.781,16C 27.086,13.271, 30,8.025, 30,2c0-0.677-0.037-1.345-0.109-2L 2.109,0 C 2.037,0.655, 2,1.323, 2,2 c0,6.025, 2.914,11.271, 7.219,14C 4.914,18.729, 2,23.975, 2,30c0,0.677, 0.037,1.345, 0.109,2l 27.783,0 c 0.071-0.655, 0.109-1.323, 0.109-2C 30,23.975, 27.086,18.729, 22.781,16z M 5,30c0-5.841, 2.505-10.794, 7-12.428 l0-3.143 l0,0 C 7.505,12.794, 5,7.841, 5,2l0,0 l 22,0 l0,0 c0,5.841-2.505,10.794-7,12.428l0,3.143 C 24.495,19.206, 27,24.159, 27,30L 5,30 zM 19.363,20.925c-2.239-1.27-2.363-2.918-2.363-3.918L 17,15 c0-1, 0.119-2.654, 2.367-3.927 c 1.203-0.699, 2.244-1.761, 3.033-3.073L 9.6,8 c 0.79,1.313, 1.832,2.376, 3.036,3.075 c 2.239,1.27, 2.363,2.918, 2.363,3.918L 15,17 c0,1-0.119,2.654-2.367,3.927c-2.269,1.318-3.961,3.928-4.472,7.073 l 15.677,0 C 23.327,24.853, 21.635,22.242, 19.363,20.925z"></path></g></svg>