<?xml version="1.0" encoding="utf-8"?> <!-- Generator: IcoMoon.io --> <!DOCTYPE svg PUBLIC "-//W3C//DTD SVG 1.1//EN" "http://www.w3.org/Graphics/SVG/1.1/DTD/svg11.dtd"> <svg width="32" height="32" viewBox="0 0 32 32" xmlns="http://www.w3.org/2000/svg" xmlns:xlink="http://www.w3.org/1999/xlink" fill="#000000"><g><path d="M 12,9A5,5 10800 1 0 22,9A5,5 10800 1 0 12,9zM0,9A5,5 10800 1 0 10,9A5,5 10800 1 0 0,9zM 24,19l0-3 c0-1.1-0.9-2-2-2l-5,0 L 5,14 L 2,14 c-1.1,0-2,0.9-2,2l0,10 c0,1.1, 0.9,2, 2,2l 20,0 c 1.1,0, 2-0.9, 2-2 l0-3 l 8,5L 32,14 L 24,19z M 20,24L 4,24 l0-6 l 16,0 L 20,24 z"></path></g></svg>