<?xml version="1.0" encoding="utf-8"?> <!-- Generator: IcoMoon.io --> <!DOCTYPE svg PUBLIC "-//W3C//DTD SVG 1.1//EN" "http://www.w3.org/Graphics/SVG/1.1/DTD/svg11.dtd"> <svg width="32" height="32" viewBox="0 0 32 32" xmlns="http://www.w3.org/2000/svg" xmlns:xlink="http://www.w3.org/1999/xlink" fill="#000000"><g><path d="M 4,29A3,3 10800 1 0 10,29A3,3 10800 1 0 4,29zM 24,29A3,3 10800 1 0 30,29A3,3 10800 1 0 24,29zM 30,16L 30,4 L 4,4 C 4,1.791, 2.209,0,0,0l0,2 c 1.103,0, 2,0.897, 2,2l 1.502,12.877C 2.587,17.61, 2,18.736, 2,20 c0,2.209, 1.791,4, 4,4l 24,0 l0-2 L 6,22 c-1.105,0-2-0.895-2-2c0-0.007, 0-0.014, 0.001-0.021L 30,16z"></path></g></svg>