<?xml version="1.0" encoding="utf-8"?> <!-- Generator: IcoMoon.io --> <!DOCTYPE svg PUBLIC "-//W3C//DTD SVG 1.1//EN" "http://www.w3.org/Graphics/SVG/1.1/DTD/svg11.dtd"> <svg width="32" height="32" viewBox="0 0 32 32" xmlns="http://www.w3.org/2000/svg" xmlns:xlink="http://www.w3.org/1999/xlink" fill="#000000"><g><path d="M 11.366,22.564l 1.291-1.807l-1.414-1.414l-1.807,1.29c-0.335-0.187-0.694-0.337-1.071-0.444L 8,18L 6,18 l-0.365,2.19c-0.377,0.107-0.736,0.256-1.071,0.444L 2.757,19.343L 1.343,20.757l 1.291,1.807 c-0.187,0.335-0.337,0.694-0.444,1.071L0,24l0,2 l 2.19,0.365c 0.107,0.377, 0.256,0.736, 0.444,1.071L 1.343,29.243l 1.414,1.414 l 1.807-1.29c 0.335,0.187, 0.694,0.337, 1.071,0.444L 6,32l 2,0 l 0.365-2.19c 0.377-0.107, 0.736-0.256, 1.071-0.444l 1.807,1.29 l 1.414-1.414l-1.291-1.807c 0.187-0.335, 0.337-0.694, 0.444-1.071L 14,26l0-2 l-2.19-0.365 C 11.703,23.258, 11.554,22.899, 11.366,22.564z M 7,27c-1.105,0-2-0.895-2-2s 0.895-2, 2-2s 2,0.895, 2,2 S 8.105,27, 7,27zM 32,12l0-2 l-2.106-0.383c-0.039-0.251-0.088-0.499-0.148-0.743l 1.799-1.159L 30.78,5.867l-2.092,0.452 c-0.132-0.216-0.273-0.426-0.422-0.629l 1.219-1.761l-1.414-1.414l-1.761,1.219c-0.203-0.149-0.413-0.29-0.629-0.422 l 0.452-2.092L 24.286,0.455l-1.159,1.799c-0.244-0.059-0.492-0.109-0.743-0.148L 22,0l-2,0 l-0.383,2.106 c-0.251,0.039-0.499,0.088-0.743,0.148L 17.714,0.455L 15.867,1.22l 0.452,2.092c-0.216,0.132-0.426,0.273-0.629,0.422 l-1.761-1.219l-1.414,1.414l 1.219,1.761c-0.149,0.203-0.29,0.413-0.422,0.629l-2.092-0.452l-0.765,1.848l 1.799,1.159 c-0.059,0.244-0.109,0.492-0.148,0.743L 10,10l0,2 l 2.106,0.383c 0.039,0.251, 0.088,0.499, 0.148,0.743l-1.799,1.159 l 0.765,1.848l 2.092-0.452c 0.132,0.216, 0.273,0.426, 0.422,0.629l-1.219,1.761l 1.414,1.414l 1.761-1.219 c 0.203,0.149, 0.413,0.29, 0.629,0.422l-0.452,2.092l 1.848,0.765l 1.159-1.799c 0.244,0.059, 0.492,0.109, 0.743,0.148L 20,22l 2,0 l 0.383-2.106c 0.251-0.039, 0.499-0.088, 0.743-0.148l 1.159,1.799l 1.848-0.765l-0.452-2.092 c 0.216-0.132, 0.426-0.273, 0.629-0.422l 1.761,1.219l 1.414-1.414l-1.219-1.761c 0.149-0.203, 0.29-0.413, 0.422-0.629 l 2.092,0.452l 0.765-1.848l-1.799-1.159c 0.059-0.244, 0.109-0.492, 0.148-0.743L 32,12z M 21,15.35 c-2.402,0-4.35-1.948-4.35-4.35c0-2.402, 1.948-4.35, 4.35-4.35s 4.35,1.948, 4.35,4.35C 25.35,13.402, 23.402,15.35, 21,15.35z"></path></g></svg>