<?xml version="1.0" encoding="utf-8"?> <!-- Generator: IcoMoon.io --> <!DOCTYPE svg PUBLIC "-//W3C//DTD SVG 1.1//EN" "http://www.w3.org/Graphics/SVG/1.1/DTD/svg11.dtd"> <svg width="32" height="32" viewBox="0 0 32 32" xmlns="http://www.w3.org/2000/svg" xmlns:xlink="http://www.w3.org/1999/xlink" fill="#000000"><g><path d="M 26.229,9.263 C 28.655,10.983 30.647,13.297 32,16 C 29.027,21.936 22.979,26 16,26 C 14.045,26 12.163,25.681 10.401,25.091 L 12.837,22.655 C 13.87,22.883 14.93,23 16,23 C 18.799,23 21.527,22.204 23.889,20.697 C 25.769,19.497 27.362,17.891 28.559,16 C 27.401,14.17 25.871,12.608 24.070,11.422 L 26.229,9.263 ZM 16,21.813 C 15.29,21.813 14.601,21.72 13.946,21.546 L 23.733,11.759 C 23.907,12.414 24,13.102 24,13.813 C 24,18.231 20.418,21.813 16,21.813 ZM 30,0l-1.679,0 L 21.458,6.863C 19.737,6.303, 17.903,6, 16,6C 9.021,6, 2.972,10.064,0,16 c 1.333,2.662, 3.285,4.947, 5.662,6.658L0,28.321L0,30 l 1.679,0 L 30,1.679L 30,0 z M 13,9.813c 1.501,0, 2.745,1.103, 2.965,2.543 l-3.423,3.423C 11.103,15.558, 10,14.314, 10,12.813C 10,11.156, 11.343,9.813, 13,9.813z M 3.441,16 c 1.197-1.891, 2.79-3.498, 4.67-4.697c 0.122-0.078, 0.246-0.154, 0.371-0.228C 8.17,11.929, 8,12.851, 8,13.813 c0,1.829, 0.614,3.514, 1.647,4.861l-1.83,1.83C 6.065,19.327, 4.575,17.792, 3.441,16z"></path></g></svg>