<?xml version="1.0" encoding="utf-8"?> <!-- Generator: IcoMoon.io --> <!DOCTYPE svg PUBLIC "-//W3C//DTD SVG 1.1//EN" "http://www.w3.org/Graphics/SVG/1.1/DTD/svg11.dtd"> <svg width="32" height="32" viewBox="0 0 32 32" xmlns="http://www.w3.org/2000/svg" xmlns:xlink="http://www.w3.org/1999/xlink" fill="#000000"><g><path d="M 16,6C 9.021,6, 2.972,10.064,0,16c 2.972,5.936, 9.021,10, 16,10c 6.979,0, 13.027-4.064, 16-10 C 29.028,10.064, 22.979,6, 16,6z M 23.889,11.303c 1.88,1.199, 3.473,2.805, 4.67,4.697 c-1.197,1.891-2.79,3.498-4.67,4.697C 21.527,22.204, 18.799,23, 16,23c-2.799,0-5.527-0.796-7.889-2.303 C 6.231,19.498, 4.638,17.891, 3.441,16c 1.197-1.891, 2.79-3.498, 4.67-4.697c 0.122-0.078, 0.246-0.154, 0.371-0.228 C 8.17,11.929, 8,12.851, 8,13.813c0,4.418, 3.582,8, 8,8s 8-3.582, 8-8c0-0.962-0.17-1.883-0.481-2.737 C 23.643,11.149, 23.767,11.225, 23.889,11.303z M 16,12.813c0,1.657-1.343,3-3,3s-3-1.343-3-3s 1.343-3, 3-3 S 16,11.156, 16,12.813z"></path></g></svg>