<?xml version="1.0" encoding="utf-8"?> <!-- Generator: IcoMoon.io --> <!DOCTYPE svg PUBLIC "-//W3C//DTD SVG 1.1//EN" "http://www.w3.org/Graphics/SVG/1.1/DTD/svg11.dtd"> <svg width="32" height="32" viewBox="0 0 32 32" xmlns="http://www.w3.org/2000/svg" xmlns:xlink="http://www.w3.org/1999/xlink" fill="#000000"><g><path d="M 16,10C 9.457,10, 3.649,13.142,0,18c 3.649,4.858, 9.457,8, 16,8c 6.543,0, 12.351-3.142, 16-8 C 28.351,13.142, 22.543,10, 16,10z M 14,14c 1.105,0, 2,0.895, 2,2s-0.895,2-2,2s-2-0.895-2-2S 12.895,14, 14,14z M 24.175,22.041c-1.239,0.633-2.552,1.121-3.901,1.449C 18.884,23.828, 17.446,24, 16,24 c-1.446,0-2.884-0.172-4.274-0.51c-1.35-0.329-2.662-0.816-3.901-1.449c-1.969-1.006-3.757-2.388-5.239-4.041 c 1.482-1.653, 3.269-3.034, 5.239-4.041c 1.010-0.516, 2.070-0.936, 3.159-1.251C 10.362,13.653, 10,14.784, 10,16 c0,3.314, 2.686,6, 6,6c 3.314,0, 6-2.686, 6-6c0-1.216-0.362-2.347-0.983-3.292c 1.089,0.316, 2.148,0.735, 3.159,1.251 c 1.969,1.006, 3.757,2.388, 5.239,4.041C 27.932,19.653, 26.145,21.034, 24.175,22.041z M 26.904,7.616 C 23.506,5.88, 19.838,5, 16,5c-3.838,0-7.506,0.88-10.904,2.616C 3.26,8.555, 1.542,9.738,0,11.119l0,3.413 c 1.729-1.83, 3.772-3.367, 6.006-4.509C 9.119,8.432, 12.482,7.625, 16,7.625s 6.881,0.807, 9.994,2.397 c 2.234,1.142, 4.277,2.679, 6.006,4.509L 32,11.119 C 30.458,9.738, 28.74,8.555, 26.904,7.616z"></path></g></svg>