<?xml version="1.0" encoding="utf-8"?> <!-- Generator: IcoMoon.io --> <!DOCTYPE svg PUBLIC "-//W3C//DTD SVG 1.1//EN" "http://www.w3.org/Graphics/SVG/1.1/DTD/svg11.dtd"> <svg width="32" height="32" viewBox="0 0 32 32" xmlns="http://www.w3.org/2000/svg" xmlns:xlink="http://www.w3.org/1999/xlink" fill="#000000"><g><path d="M 23.339,16.393l 0.411-3.911l-3.536,0 l0-1.946 q0-0.875 0.277-1.223t 1.277-0.348l 1.964,0 l0-3.911 l-3.125,0 q-2.714,0 -3.893,1.286t-1.179,3.804l0,2.339 l-2.339,0 l0,3.911 l 2.339,0 l0,11.339 l 4.679,0 l0-11.339 l 3.125,0 zM 27.429,7.429l0,17.143 q0,2.125 -1.509,3.634t-3.634,1.509l-17.143,0 q-2.125,0 -3.634-1.509t-1.509-3.634l0-17.143 q0-2.125 1.509-3.634t 3.634-1.509l 17.143,0 q 2.125,0 3.634,1.509t 1.509,3.634z"></path></g></svg>