<?xml version="1.0" encoding="utf-8"?> <!-- Generator: IcoMoon.io --> <!DOCTYPE svg PUBLIC "-//W3C//DTD SVG 1.1//EN" "http://www.w3.org/Graphics/SVG/1.1/DTD/svg11.dtd"> <svg width="32" height="32" viewBox="0 0 32 32" xmlns="http://www.w3.org/2000/svg" xmlns:xlink="http://www.w3.org/1999/xlink" fill="#000000"><g><path d="M 26.667,0L 5.334,0 C 2.4,0,0,2.4,0,5.334l0,21.332 C0,29.602, 2.4,32, 5.334,32L 26.667,32 c 2.934,0, 5.333-2.398, 5.333-5.334L 32,5.334 C 32,2.4, 29.601,0, 26.667,0z M 8.717,25.977C 7.218,25.977, 6,24.767, 6,23.269 c0-1.49, 1.218-2.713, 2.717-2.713c 1.505,0, 2.721,1.223, 2.721,2.713C 11.438,24.767, 10.222,25.977, 8.717,25.977z M 15.546,26c0-2.557-0.994-4.963-2.796-6.764c-1.804-1.805-4.199-2.801-6.747-2.801L 6.003,12.523 c 7.427,0, 13.473,6.045, 13.473,13.477L 15.546,26L 15.546,26z M 22.488,26 c0-9.096-7.396-16.498-16.48-16.498L 6.008,5.588 c 11.25,0, 20.405,9.16, 20.405,20.412L 22.488,26L 22.488,26z"></path></g></svg>