<?xml version="1.0" encoding="utf-8"?> <!-- Generator: IcoMoon.io --> <!DOCTYPE svg PUBLIC "-//W3C//DTD SVG 1.1//EN" "http://www.w3.org/Graphics/SVG/1.1/DTD/svg11.dtd"> <svg width="32" height="32" viewBox="0 0 32 32" xmlns="http://www.w3.org/2000/svg" xmlns:xlink="http://www.w3.org/1999/xlink" fill="#000000"><g><path d="M 26,5.385 C 28.39,5.385 30.534,4.084 32,3.1 L 32,21.715 C 30.534,22.699 28.39,24 26,24 C 23.61,24 21.466,23.292 20,22.308 C 18.534,21.324 16.39,20.615 14,20.615 C 11.61,20.615 9.466,21.832 8,22.815 L 8,4.2 C 9.466,3.216 11.61,2 14,2 C 16.39,2 18.534,2.708 20,3.692 C 21.466,4.676 23.61,5.385 26,5.385 ZM 4,0 C 5.105,0 6,0.895 6,2 L 6,32 L 2,32 L 2,2 C 2,0.895 2.895,0 4,0 Z"></path></g></svg>