<?xml version="1.0" encoding="utf-8"?> <!-- Generator: IcoMoon.io --> <!DOCTYPE svg PUBLIC "-//W3C//DTD SVG 1.1//EN" "http://www.w3.org/Graphics/SVG/1.1/DTD/svg11.dtd"> <svg width="32" height="32" viewBox="0 0 32 32" xmlns="http://www.w3.org/2000/svg" xmlns:xlink="http://www.w3.org/1999/xlink" fill="#000000"><g><path d="M 25,13 C 22.794,13 21,14.794 21,17 C 21,19.206 22.794,21 25,21 C 27.206,21 29,19.206 29,17 C 29,14.794 27.206,13 25,13 Z M 25,10 L 25,10 C 28.866,10 32,13.134 32,17 C 32,20.866 28.866,24 25,24 C 21.134,24 18,20.866 18,17 C 18,13.134 21.134,10 25,10 ZM0,17A7,7 1080 1 0 14,17A7,7 1080 1 0 0,17z"></path></g></svg>