<?xml version="1.0" encoding="utf-8"?> <!-- Generator: IcoMoon.io --> <!DOCTYPE svg PUBLIC "-//W3C//DTD SVG 1.1//EN" "http://www.w3.org/Graphics/SVG/1.1/DTD/svg11.dtd"> <svg width="32" height="32" viewBox="0 0 32 32" xmlns="http://www.w3.org/2000/svg" xmlns:xlink="http://www.w3.org/1999/xlink" fill="#000000"><g><path d="M 32,11.192 C 32,13.891 30.837,16.318 28.985,18 L 29,18 L 19,28 C 18,29 17,30 16,30 C 15,30 14,29 13,28 L 3,18 L 3.015,18 C 1.163,16.318 0,13.891 0,11.192 C 0,6.116 4.116,2 9.192,2 C 11.891,2 14.318,3.163 16,5.015 C 17.682,3.163 20.109,2 22.808,2 C 27.884,2 32,6.116 32,11.192 Z"></path></g></svg>