<?xml version="1.0" encoding="utf-8"?> <!-- Generator: IcoMoon.io --> <!DOCTYPE svg PUBLIC "-//W3C//DTD SVG 1.1//EN" "http://www.w3.org/Graphics/SVG/1.1/DTD/svg11.dtd"> <svg width="32" height="32" viewBox="0 0 32 32" xmlns="http://www.w3.org/2000/svg" xmlns:xlink="http://www.w3.org/1999/xlink" fill="#000000"><g><path d="M 32,11.192C 32,6.116, 27.884,2, 22.808,2C 20.109,2, 17.682,3.163, 16,5.015C 14.318,3.163, 11.891,2, 9.192,2 C 4.116,2,0,6.116,0,11.192C0,13.891, 1.163,16.318, 3.015,18L 3,18 l 10,10c 1,1, 2,2, 3,2s 2-1, 3-2l 10-10l-0.015,0 C 30.837,16.318, 32,13.891, 32,11.192z M 26.296,15.039L 16.172,25.172c-0.052,0.052-0.11,0.11-0.172,0.171 c-0.061-0.061-0.119-0.119-0.172-0.171L 5.704,15.039C 4.605,14.041, 4,12.675, 4,11.192C 4,8.329, 6.329,6, 9.192,6 c 1.482,0, 2.848,0.605, 3.846,1.704L 16,10.966l 2.962-3.262C 19.959,6.605, 21.325,6, 22.808,6 C 25.671,6, 28,8.329, 28,11.192C 28,12.675, 27.395,14.041, 26.296,15.039z"></path></g></svg>