<?xml version="1.0" encoding="utf-8"?> <!-- Generator: IcoMoon.io --> <!DOCTYPE svg PUBLIC "-//W3C//DTD SVG 1.1//EN" "http://www.w3.org/Graphics/SVG/1.1/DTD/svg11.dtd"> <svg width="32.228126525878906" height="32.22800064086914" viewBox="0 0 32.228126525878906 32.22800064086914" xmlns="http://www.w3.org/2000/svg" xmlns:xlink="http://www.w3.org/1999/xlink" fill="#000000"><g><path d="M 31.317,9.82l-3.16-3.159c-0.775-0.775-2.043-2.043-2.818-2.818l-3.16-3.159 c-0.775-0.775-2.155-0.911-3.067-0.304L 10.475,6.139c-0.912,0.608-1.257,1.907-0.767,2.887l 2.203,4.405 c 0.067,0.135, 0.145,0.278, 0.231,0.427L 1,25L0,32l 6,0 l0-2 l 4,0 l0-4 l 4,0 l0-4l 4,0 l0-2.225 c 0.2,0.119, 0.392,0.226, 0.569,0.314 l 4.405,2.203c 0.98,0.49, 2.279,0.145, 2.887-0.767l 5.759-8.639C 32.228,11.975, 32.091,10.595, 31.317,9.82z M 4.707,26.707l-1.414-1.414l 9.737-9.737l 1.414,1.414L 4.707,26.707z M 28.657,13.243l-1.414,1.414 c-0.389,0.389-1.025,0.389-1.414,0L 17.343,6.172c-0.389-0.389-0.389-1.025,0-1.414l 1.414-1.414 c 0.389-0.389, 1.025-0.389, 1.414,0L 28.657,11.828C 29.046,12.217, 29.046,12.854, 28.657,13.243z"></path></g></svg>