<?xml version="1.0" encoding="utf-8"?> <!-- Generator: IcoMoon.io --> <!DOCTYPE svg PUBLIC "-//W3C//DTD SVG 1.1//EN" "http://www.w3.org/Graphics/SVG/1.1/DTD/svg11.dtd"> <svg width="32" height="32" viewBox="0 0 32 32" xmlns="http://www.w3.org/2000/svg" xmlns:xlink="http://www.w3.org/1999/xlink" fill="#000000"><g><path d="M 22,0c-5.523,0-10,4.477-10,10c0,0.626, 0.058,1.238, 0.168,1.832L0,24l0,6 c0,1.105, 0.895,2, 2,2 l 2,0 l0-2 l 4,0 l0-4 l 4,0 l0-4 l 4,0 l 2.595-2.595C 19.658,19.79, 20.804,20, 22,20c 5.523,0, 10-4.477, 10-10S 27.523,0, 22,0z M 24.996,10.004c-1.657,0-3-1.343-3-3s 1.343-3, 3-3s 3,1.343, 3,3S 26.653,10.004, 24.996,10.004z"></path></g></svg>