<?xml version="1.0" encoding="utf-8"?> <!-- Generator: IcoMoon.io --> <!DOCTYPE svg PUBLIC "-//W3C//DTD SVG 1.1//EN" "http://www.w3.org/Graphics/SVG/1.1/DTD/svg11.dtd"> <svg width="32.295623779296875" height="32" viewBox="0 0 32.295623779296875 32" xmlns="http://www.w3.org/2000/svg" xmlns:xlink="http://www.w3.org/1999/xlink" fill="#000000"><g><path d="M 29.884,25.14L 20,8.671L 20,2 l 1,0 c 0.55,0, 1-0.45, 1-1s-0.45-1-1-1L 11,0 c-0.55,0-1,0.45-1,1s 0.45,1, 1,1l 1,0 l0,6.671 L 2.116,25.14C-0.148,28.913, 1.6,32, 6,32l 20,0 C 30.4,32, 32.148,28.913, 29.884,25.14z M 7.532,20L 14,9.221L 14,2 l 4,0 l0,7.221 L 24.468,20L 7.532,20 z"></path></g></svg>