<?xml version="1.0" encoding="utf-8"?> <!-- Generator: IcoMoon.io --> <!DOCTYPE svg PUBLIC "-//W3C//DTD SVG 1.1//EN" "http://www.w3.org/Graphics/SVG/1.1/DTD/svg11.dtd"> <svg width="32" height="32" viewBox="0 0 32 32" xmlns="http://www.w3.org/2000/svg" xmlns:xlink="http://www.w3.org/1999/xlink" fill="#000000"><g><path d="M 26,14l-2,0 l0-6 C 24,3.582, 20.418,0, 16,0c-4.418,0-8,3.582-8,8l0,6 L 6,14 c-1.1,0-2,0.9-2,2l0,14 c0,1.1, 0.9,2, 2,2l 20,0 c 1.1,0, 2-0.9, 2-2L 28,16 C 28,14.9, 27.1,14, 26,14z M 16,26c-1.105,0-2-0.895-2-2 s 0.895-2, 2-2s 2,0.895, 2,2S 17.105,26, 16,26z M 20,14L 12,14 l0-6 c0-2.206, 1.794-4, 4-4s 4,1.794, 4,4L 20,14 z"></path></g></svg>