<?xml version="1.0" encoding="utf-8"?> <!-- Generator: IcoMoon.io --> <!DOCTYPE svg PUBLIC "-//W3C//DTD SVG 1.1//EN" "http://www.w3.org/Graphics/SVG/1.1/DTD/svg11.dtd"> <svg width="32" height="32" viewBox="0 0 32 32" xmlns="http://www.w3.org/2000/svg" xmlns:xlink="http://www.w3.org/1999/xlink" fill="#000000"><g><path d="M 28,8L 28,4 L0,4 l0,22 c0,1.105, 0.895,2, 2,2l 27,0 c 1.657,0, 3-1.343, 3-3L 32,8 L 28,8 z M 26,26L 2,26 L 2,6 l 24,0 L 26,26 zM 4,10L 24,10L 24,12L 4,12zM 16,14L 24,14L 24,16L 16,16zM 16,18L 24,18L 24,20L 16,20zM 16,22L 22,22L 22,24L 16,24zM 4,14L 14,14L 14,24L 4,24z"></path></g></svg>