<?xml version="1.0" encoding="utf-8"?> <!-- Generator: IcoMoon.io --> <!DOCTYPE svg PUBLIC "-//W3C//DTD SVG 1.1//EN" "http://www.w3.org/Graphics/SVG/1.1/DTD/svg11.dtd"> <svg width="32" height="32" viewBox="0 0 32 32" xmlns="http://www.w3.org/2000/svg" xmlns:xlink="http://www.w3.org/1999/xlink" fill="#000000"><g><path d="M 26.667,0L 5.333,0 C 2.387,0,0,2.388,0,5.334l0,21.332 C0,29.612, 2.387,32, 5.333,32l 21.334,0 C 29.613,32, 32,29.612, 32,26.666L 32,5.334 C 32,2.388, 29.613,0, 26.667,0z M 17.551,21.379 c-1.454-0.113-2.064-0.833-3.203-1.525c-0.627,3.287-1.393,6.438-3.661,8.084 c-0.7-4.968, 1.028-8.699, 1.83-12.66c-1.368-2.303, 0.165-6.939, 3.051-5.796 c 3.551,1.405-3.075,8.563, 1.373,9.457c 4.644,0.933, 6.54-8.058, 3.661-10.982 c-4.161-4.222-12.112-0.096-11.135,5.949c 0.238,1.478, 1.765,1.926, 0.61,3.966c-2.663-0.59-3.458-2.691-3.356-5.491 c 0.165-4.584, 4.118-7.793, 8.084-8.236c 5.015-0.561, 9.722,1.841, 10.372,6.559 C 25.91,16.026, 22.914,21.793, 17.551,21.379z"></path></g></svg>