<?xml version="1.0" encoding="utf-8"?> <!-- Generator: IcoMoon.io --> <!DOCTYPE svg PUBLIC "-//W3C//DTD SVG 1.1//EN" "http://www.w3.org/Graphics/SVG/1.1/DTD/svg11.dtd"> <svg width="32" height="32" viewBox="0 0 32 32" xmlns="http://www.w3.org/2000/svg" xmlns:xlink="http://www.w3.org/1999/xlink" fill="#000000"><g><path d="M 31,12L 20,12 L 20,1 c0-0.552-0.448-1-1-1l-6,0 c-0.552,0-1,0.448-1,1l0,11 L 1,12 c-0.552,0-1,0.448-1,1l0,6 c0,0.552, 0.448,1, 1,1l 11,0 l0,11 c0,0.552, 0.448,1, 1,1l 6,0 c 0.552,0, 1-0.448, 1-1L 20,20 l 11,0 c 0.552,0, 1-0.448, 1-1l0-6 C 32,12.448, 31.552,12, 31,12z"></path></g></svg>