<?xml version="1.0" encoding="utf-8"?> <!-- Generator: IcoMoon.io --> <!DOCTYPE svg PUBLIC "-//W3C//DTD SVG 1.1//EN" "http://www.w3.org/Graphics/SVG/1.1/DTD/svg11.dtd"> <svg width="32" height="32" viewBox="0 0 32 32" xmlns="http://www.w3.org/2000/svg" xmlns:xlink="http://www.w3.org/1999/xlink" fill="#000000"><g><path d="M 4,12L 14.869,12 C 14.167,9.472, 13.813,8.857, 13.813,6.188c0-2.309 1.879-4.188 4.188-4.188c 2.309,0 4.188,1.879 4.188,4.188 c0,3.249 1.21,4.748 3.597,6.428c 0.071,0.050 0.143,0.099 0.216,0.147L 26,10 L 32,10 l0,20 l-6,0 l0-1.781 c -1.989,0.134, -2.535,0.694, -3.201,1.378c -0.514,0.528, -1.154,1.185, -2.313,1.665C 19.268,31.765, 17.684,32, 15.5,32l-1.5,0 l-0.531,0 c -1.936,0, -3.51-1.602, -3.51-3.571c0-0.327 0.044-0.652 0.131-0.966c -0.616-0.656, -0.968-1.531, -0.968-2.463 c0-0.327 0.044-0.652 0.131-0.966c -0.616-0.656, -0.968-1.531, -0.968-2.463c0-0.564 0.129-1.097 0.359-1.571L 4,20 c -2.209,0, -4-1.791, -4-4C 0,13.791, 1.791,12, 4,12z M 29,28c 0.552,0 1-0.448 1-1s -0.448-1, -1-1s -1,0.448, -1,1 S 28.448,28, 29,28z M 4.188,18L 11.983,18 L 12.188,18 l0,2 l-0.204,0 c -0.833,0, -1.51,0.705, -1.51,1.571c0,0.543 0.265,1.040 0.708,1.331 l 0.775,0.508l -0.447,0.811c -0.13,0.236, -0.199,0.506, -0.199,0.779c0,0.543 0.265,1.040 0.708,1.331l 0.775,0.508l -0.447,0.811 c -0.13,0.236, -0.199,0.506, -0.199,0.779c0,0.866 0.677,1.571 1.51,1.571L 14.188,30 l 1.5,0 c 3.955,0 4.753-1.194 5.597-2.061 c 0.862-0.885 1.828-1.875 4.715-2.085L 26,15.405 c -0.492-0.258, -0.959-0.539, -1.396-0.847C 21.592,12.438, 20,10.197, 20,6.188 c0-0.999, -0.938-1.813, -1.938-1.813s -1.875,0.813, -1.875,1.813c0,2.677 0.388,3.294 1.155,5.813c 0.191,0.711 0.373,1.415 0.496,1.979L 4.188,14 c -1.103,0, -2,0.897, -2,2C 2.188,17.103, 3.085,18, 4.188,18z"></path></g></svg>