<?xml version="1.0" encoding="utf-8"?> <!-- Generator: IcoMoon.io --> <!DOCTYPE svg PUBLIC "-//W3C//DTD SVG 1.1//EN" "http://www.w3.org/Graphics/SVG/1.1/DTD/svg11.dtd"> <svg width="32" height="32" viewBox="0 0 32 32" xmlns="http://www.w3.org/2000/svg" xmlns:xlink="http://www.w3.org/1999/xlink" fill="#000000"><g><path d="M 10,28L 10,17.131 C 7.472,17.833, 6.856,18.188, 4.188,18.188c -2.309,0 -4.188-1.879 -4.188-4.188c0-2.309 1.879-4.188 4.188-4.188 c 3.249,0 4.748-1.21 6.428-3.597c 0.050-0.071 0.099-0.143 0.147-0.216L 8,6 L 8,0 l 20,0 l 0,6 l -1.781,0 c 0.134,1.989, 0.694,2.535, 1.378,3.201c 0.528,0.514, 1.185,1.154, 1.665,2.313C 29.765,12.732, 30,14.316, 30,16.5l 0,1.5 l 0,0.531 c 0,1.936, -1.602,3.51, -3.571,3.51c -0.327,0 -0.652-0.044 -0.966-0.131c -0.656,0.616, -1.531,0.968, -2.463,0.968 c -0.327,0 -0.652-0.044 -0.966-0.131c -0.656,0.616, -1.531,0.968, -2.463,0.968c -0.564,0 -1.097-0.129 -1.571-0.359L 18,28 c 0,2.209, -1.791,4, -4,4C 11.791,32, 10,30.209, 10,28z M 26,3c0-0.552 -0.448-1 -1-1s -1,0.448, -1,1s 0.448,1, 1,1 S 26,3.552, 26,3z M 16,27.813L 16,20.017 L 16,19.813 l 2,0 l 0,0.204 c 0,0.833, 0.705,1.51, 1.571,1.51c 0.543,0 1.040-0.265 1.331-0.708 l 0.508-0.775l 0.811,0.447c 0.236,0.13, 0.506,0.199, 0.779,0.199c 0.543,0 1.040-0.265 1.331-0.708l 0.508-0.775l 0.811,0.447 c 0.236,0.13, 0.506,0.199, 0.779,0.199c 0.866,0 1.571-0.677 1.571-1.51L 28,17.813 l0-1.5 c0-3.955 -1.194-4.753 -2.061-5.597 c -0.885-0.862 -1.875-1.828 -2.085-4.715L 13.405,6 c -0.258,0.492, -0.539,0.959, -0.847,1.396C 10.438,10.408, 8.197,12, 4.188,12 c -0.999,0, -1.813,0.938, -1.813,1.938s 0.813,1.875, 1.813,1.875c 2.677,0 3.294-0.388 5.813-1.155c 0.711-0.191 1.415-0.373 1.979-0.496L 12,27.813 c 0,1.103, 0.897,2, 2,2C 15.103,29.813, 16,28.915, 16,27.813z"></path></g></svg>