<?xml version="1.0" encoding="utf-8"?> <!-- Generator: IcoMoon.io --> <!DOCTYPE svg PUBLIC "-//W3C//DTD SVG 1.1//EN" "http://www.w3.org/Graphics/SVG/1.1/DTD/svg11.dtd"> <svg width="32.29225158691406" height="32.29225158691406" viewBox="0 0 32.29225158691406 32.29225158691406" xmlns="http://www.w3.org/2000/svg" xmlns:xlink="http://www.w3.org/1999/xlink" fill="#000000"><g><path d="M 28.994,0L 19.977,0 c-1.653,0-3.962,0.956-5.131,2.125L 0.877,16.094c-1.169,1.169-1.169,3.082,0,4.251 l 10.778,10.778c 1.169,1.169, 3.082,1.169, 4.251,0l 13.968-13.968C 31.044,15.986, 32,13.677, 32,12.023L 32,3.006 C 32,1.353, 30.647,0, 28.994,0z M 25,10c-1.657,0-3-1.343-3-3s 1.343-3, 3-3s 3,1.343, 3,3S 26.657,10, 25,10z"></path></g></svg>