<?xml version="1.0" encoding="utf-8"?> <!-- Generator: IcoMoon.io --> <!DOCTYPE svg PUBLIC "-//W3C//DTD SVG 1.1//EN" "http://www.w3.org/Graphics/SVG/1.1/DTD/svg11.dtd"> <svg width="34.04537582397461" height="32" viewBox="0 0 34.04537582397461 32" xmlns="http://www.w3.org/2000/svg" xmlns:xlink="http://www.w3.org/1999/xlink" fill="#000000"><g><path d="M 31,2L 24,2 c-1.65,0-3.955,0.955-5.121,2.121L 7.121,15.879c-1.167,1.167-1.167,3.076,0,4.243l 8.757,8.757 c 1.167,1.167, 3.076,1.167, 4.243,0l 11.757-11.757C 33.045,15.955, 34,13.65, 34,12L 34,5 C 34,3.35, 32.65,2, 31,2z M 27,12 c-1.657,0-3-1.343-3-3s 1.343-3, 3-3s 3,1.343, 3,3S 28.657,12, 27,12zM 2.707,18.707 L 13.406,29.406 C 12.273,30.005 10.829,29.829 9.879,28.879 L 1.121,20.121 C -0.045,18.955 -0.045,17.045 1.121,15.879 L 12.879,4.121 C 14.045,2.955 16.35,2 18,2 L 2.707,17.293 C 2.318,17.682 2.318,18.318 2.707,18.707 Z"></path></g></svg>