<?xml version="1.0" encoding="utf-8"?> <!-- Generator: IcoMoon.io --> <!DOCTYPE svg PUBLIC "-//W3C//DTD SVG 1.1//EN" "http://www.w3.org/Graphics/SVG/1.1/DTD/svg11.dtd"> <svg width="32" height="32" viewBox="0 0 32 32" xmlns="http://www.w3.org/2000/svg" xmlns:xlink="http://www.w3.org/1999/xlink" fill="#000000"><g><path d="M 29,18 C 31.281,18 30,24 28,24 C 29,24 28,29 26,29 C 26,31 24,32 22,32 C 13.552,32 16.523,29.886 8,29 L 8,13 C 15.529,10.742 23,5.080 23,0 C 24.656,0 29,2 23,12 C 23,12 28,12 29,12 C 32,12 31,18 29,18 ZM 6,13 L 6,29 L 8,29 L 8,30 L 4,30 C 2.9,30 2,28.65 2,27 L 2,15 C 2,13.35 2.9,12 4,12 L 8,12 L 8,13 L 6,13 Z"></path></g></svg>