<?xml version="1.0" encoding="utf-8"?> <!-- Generator: IcoMoon.io --> <!DOCTYPE svg PUBLIC "-//W3C//DTD SVG 1.1//EN" "http://www.w3.org/Graphics/SVG/1.1/DTD/svg11.dtd"> <svg width="32" height="32" viewBox="0 0 32 32" xmlns="http://www.w3.org/2000/svg" xmlns:xlink="http://www.w3.org/1999/xlink" fill="#000000"><g><path d="M 3,14 C 0.719,14 2,8 4,8 C 3,8 4,3 6,3 C 6,1 8,0 10,0 C 18.448,0 15.477,2.114 24,3 L 24,19 C 16.471,21.258 9,26.919 9,32 C 7.344,32 3,30 9,20 C 9,20 4,20 3,20 C 0,20 1,14 3,14 ZM 26,19 L 26,3 L 24,3 L 24,2 L 28,2 C 29.1,2 30,3.35 30,5 L 30,17 C 30,18.65 29.1,20 28,20 L 24,20 L 24,19 L 26,19 Z"></path></g></svg>