<?xml version="1.0" encoding="utf-8"?> <!-- Generator: IcoMoon.io --> <!DOCTYPE svg PUBLIC "-//W3C//DTD SVG 1.1//EN" "http://www.w3.org/Graphics/SVG/1.1/DTD/svg11.dtd"> <svg width="32" height="32" viewBox="0 0 32 32" xmlns="http://www.w3.org/2000/svg" xmlns:xlink="http://www.w3.org/1999/xlink" fill="#000000"><g><path d="M 22.857,10.893q-1,0.446 -2.161,0.607q 1.214-0.714 1.661-2.089q-1.161,0.679 -2.393,0.911q-1.089-1.179 -2.732-1.179q-1.554,0 -2.652,1.098t-1.098,2.652q0,0.518 0.089,0.857q-2.304-0.125 -4.321-1.161t-3.429-2.768q-0.518,0.893 -0.518,1.893q0,2.036 1.625,3.125q-0.839-0.018 -1.786-0.464l0,0.036 q0,1.339 0.893,2.384t 2.196,1.295q-0.518,0.143 -0.911,0.143q-0.232,0 -0.696-0.071 q 0.375,1.125 1.33,1.857t 2.17,0.75q-2.071,1.607 -4.661,1.607q-0.464,0 -0.893-0.054q 2.643,1.679 5.75,1.679q 2,0 3.75-0.634t 3-1.696t 2.152-2.446t 1.339-2.893t 0.438-3.009q0-0.321 -0.018-0.482q 1.125-0.804 1.875-1.946zM 27.429,7.429l0,17.143 q0,2.125 -1.509,3.634t-3.634,1.509l-17.143,0 q-2.125,0 -3.634-1.509t-1.509-3.634l0-17.143 q0-2.125 1.509-3.634 t 3.634-1.509l 17.143,0 q 2.125,0 3.634,1.509t 1.509,3.634z"></path></g></svg>