<?xml version="1.0" encoding="utf-8"?> <!-- Generator: IcoMoon.io --> <!DOCTYPE svg PUBLIC "-//W3C//DTD SVG 1.1//EN" "http://www.w3.org/Graphics/SVG/1.1/DTD/svg11.dtd"> <svg width="32" height="32" viewBox="0 0 32 32" xmlns="http://www.w3.org/2000/svg" xmlns:xlink="http://www.w3.org/1999/xlink" fill="#000000"><g><path d="M 26.5,32L 5.5,32 c-0.828,0-1.5-0.672-1.5-1.5c0-2.152, 0.908-4.756, 2.43-6.967c 1.272-1.847, 2.834-3.238, 4.521-4.050 c-0.744-0.676-1.384-1.501-1.891-2.441c-0.813-1.508-1.242-3.252-1.242-5.042c0-2.488, 0.819-4.838, 2.306-6.618 C 11.676,3.523, 13.763,2.5, 16,2.5s 4.324,1.023, 5.876,2.882c 1.487,1.78, 2.306,4.131, 2.306,6.618 c0,1.79-0.429,3.533-1.242,5.042c-0.507,0.941-1.147,1.765-1.891,2.441c 1.687,0.812, 3.25,2.203, 4.521,4.050 C 27.092,25.744, 28,28.348, 28,30.5C 28,31.328, 27.328,32, 26.5,32z M 7.19,29l 17.62,0 c-0.288-1.229-0.891-2.575-1.711-3.766c-1.295-1.882-2.912-3.113-4.551-3.466c-0.691-0.149-1.184-0.76-1.184-1.466 l0-1.072 c0-0.539, 0.29-1.037, 0.758-1.304c 1.859-1.057, 3.060-3.383, 3.060-5.926c0-3.584-2.325-6.5-5.182-6.5 c-2.857,0-5.182,2.916-5.182,6.5c0,2.542, 1.201,4.869, 3.060,5.926c 0.469,0.267, 0.758,0.764, 0.758,1.304l0,1.072 c0,0.707-0.493,1.317-1.184,1.466c-1.639,0.353-3.256,1.584-4.551,3.466C 8.081,26.425, 7.478,27.771, 7.19,29z"></path></g></svg>