<?xml version="1.0" encoding="utf-8"?> <!-- Generator: IcoMoon.io --> <!DOCTYPE svg PUBLIC "-//W3C//DTD SVG 1.1//EN" "http://www.w3.org/Graphics/SVG/1.1/DTD/svg11.dtd"> <svg width="32.1458740234375" height="32.1458740234375" viewBox="0 0 32.1458740234375 32.1458740234375" xmlns="http://www.w3.org/2000/svg" xmlns:xlink="http://www.w3.org/1999/xlink" fill="#000000"><g><path d="M 8,6L 4,2L 2,2L 2,4L 6,8 zM 10,0L 12,0L 12,4L 10,4zM 18,10L 22,10L 22,12L 18,12zM 20,4L 20,2L 18,2L 14,6L 16,8 zM0,10L 4,10L 4,12L0,12zM 10,18L 12,18L 12,22L 10,22zM 2,18L 2,20L 4,20L 8,16L 6,14 zM 31.563,27.563L 11.684,7.684c-0.583-0.583-1.538-0.583-2.121,0L 7.684,9.563c-0.583,0.583-0.583,1.538,0,2.121L 27.563,31.563 c 0.583,0.583, 1.538,0.583, 2.121,0L 31.563,29.684C 32.146,29.1, 32.146,28.146, 31.563,27.563z M 15,17l-6-6l 2-2l 6,6L 15,17z"></path></g></svg>