<?xml version="1.0" encoding="utf-8"?> <!-- Generator: IcoMoon.io --> <!DOCTYPE svg PUBLIC "-//W3C//DTD SVG 1.1//EN" "http://www.w3.org/Graphics/SVG/1.1/DTD/svg11.dtd"> <svg width="33.21531295776367" height="32" viewBox="0 0 33.21531295776367 32" xmlns="http://www.w3.org/2000/svg" xmlns:xlink="http://www.w3.org/1999/xlink" fill="#000000"><g><path d="M 16,4.96 L 5.224,28 L 26.776,28 L 16,4.96 Z M 16,0 L 16,0 C 16.69,0 17.379,0.465 17.903,1.395 L 31.561,28.617 C 32.608,30.478 31.717,32 29.583,32 L 2.417,32 C 0.283,32 -0.608,30.478 0.439,28.617 L 14.097,1.395 C 14.621,0.465 15.31,0 16,0 ZM 14,24A2,2 2520 1 0 18,24A2,2 2520 1 0 14,24zM 16,12 C 17.105,12 18,12.895 18,14 L 17.375,20 L 14.625,20 L 14,14 C 14,12.895 14.895,12 16,12 Z"></path></g></svg>