<?xml version="1.0" encoding="utf-8"?> <!-- Generator: IcoMoon.io --> <!DOCTYPE svg PUBLIC "-//W3C//DTD SVG 1.1//EN" "http://www.w3.org/Graphics/SVG/1.1/DTD/svg11.dtd"> <svg width="32" height="32" viewBox="0 0 32 32" xmlns="http://www.w3.org/2000/svg" xmlns:xlink="http://www.w3.org/1999/xlink" fill="#000000"><g><path d="M 16.211,17.022 L 19.899,26.864 C 19.923,26.922 19.953,26.975 19.985,27.025 C 18.738,27.453 17.397,27.688 16,27.688 C 14.822,27.688 13.685,27.519 12.61,27.211 L 16.211,17.022 ZM 28,16 C 28,20.311 25.601,24.076 22.033,26.102 L 25.698,15.781 C 26.383,14.113 26.611,12.78 26.611,11.595 C 26.611,11.164 26.582,10.765 26.53,10.393 C 27.467,12.057 28,13.968 28,16 ZM 4,16 C 4,14.305 4.373,12.697 5.039,11.243 L 10.763,26.518 C 6.76,24.624 4,20.626 4,16 ZM 5.974,9.58 C 8.119,6.408 11.808,4.313 16,4.313 C 19.124,4.313 21.969,5.476 24.104,7.381 C 24.052,7.378 24.001,7.372 23.948,7.372 C 22.769,7.372 21.933,8.372 21.933,9.446 C 21.933,10.409 22.504,11.224 23.112,12.187 C 23.568,12.965 24.101,13.965 24.101,15.41 C 24.101,16.41 23.706,17.571 23.188,19.188 L 21.991,23.083 L 17.654,10.52 C 18.376,10.483 19.027,10.409 19.027,10.409 C 19.674,10.335 19.598,9.409 18.951,9.446 C 18.951,9.446 17.007,9.594 15.752,9.594 C 14.573,9.594 12.592,9.446 12.592,9.446 C 11.945,9.409 11.869,10.372 12.516,10.409 C 12.516,10.409 13.128,10.483 13.774,10.52 L 15.644,15.509 L 13.017,23.18 L 8.648,10.52 C 9.371,10.483 10.021,10.409 10.021,10.409 C 10.667,10.335 10.591,9.409 9.944,9.446 C 9.944,9.446 8.001,9.594 6.746,9.594 C 6.521,9.594 6.255,9.589 5.974,9.58 ZM 26.625,0L 5.375,0 C 2.419,0,0,2.419,0,5.375l0,21.25 c0,2.956, 2.419,5.375, 5.375,5.375l 21.25,0 c 2.956,0, 5.375-2.419, 5.375-5.375L 32,5.375 C 32,2.419, 29.581,0, 26.625,0z M 30,16 c0,7.732-6.268,14-14,14S 2,23.732, 2,16S 8.268,2, 16,2S 30,8.268, 30,16z"></path></g></svg>