<?xml version="1.0" encoding="utf-8"?> <!-- Generator: IcoMoon.io --> <!DOCTYPE svg PUBLIC "-//W3C//DTD SVG 1.1//EN" "http://www.w3.org/Graphics/SVG/1.1/DTD/svg11.dtd"> <svg width="32" height="32" viewBox="0 0 32 32" xmlns="http://www.w3.org/2000/svg" xmlns:xlink="http://www.w3.org/1999/xlink" fill="#000000"><g><path d="M 4,16c0,4.626, 2.76,8.624, 6.763,10.518L 5.039,11.243C 4.373,12.697, 4,14.305, 4,16zM 24.101,15.41c0-1.445-0.533-2.445-0.989-3.223c-0.608-0.963-1.179-1.778-1.179-2.741 c0-1.074, 0.836-2.074, 2.015-2.074c 0.053,0, 0.104,0.006, 0.155,0.009C 21.969,5.476, 19.124,4.313, 16,4.313 c-4.192,0-7.881,2.095-10.026,5.268c 0.282,0.009, 0.547,0.014, 0.772,0.014c 1.255,0, 3.198-0.148, 3.198-0.148 c 0.647-0.037, 0.723,0.889, 0.077,0.963c0,0-0.65,0.074-1.373,0.111l 4.37,12.66l 2.626-7.67l-1.869-4.989 c-0.646-0.037-1.259-0.111-1.259-0.111c-0.647-0.037-0.571-1, 0.076-0.963c0,0, 1.981,0.148, 3.16,0.148 c 1.255,0, 3.198-0.148, 3.198-0.148c 0.647-0.037, 0.723,0.889, 0.076,0.963c0,0-0.651,0.074-1.373,0.111L 21.991,23.083 l 1.197-3.895C 23.706,17.571, 24.101,16.41, 24.101,15.41zM 16.211,17.022l-3.601,10.189c 1.075,0.308, 2.212,0.476, 3.39,0.476c 1.397,0, 2.738-0.235, 3.985-0.662 c-0.032-0.050-0.062-0.103-0.086-0.161L 16.211,17.022zM 26.53,10.393c 0.052,0.372, 0.081,0.771, 0.081,1.202c0,1.185-0.228,2.519-0.913,4.186l-3.665,10.321 C 25.601,24.076, 28,20.311, 28,16C 28,13.968, 27.467,12.057, 26.53,10.393zM 16,0C 7.163,0,0,7.163,0,16s 7.163,16, 16,16s 16-7.163, 16-16S 24.837,0, 16,0z M 16,30 C 8.268,30, 2,23.732, 2,16S 8.268,2, 16,2s 14,6.268, 14,14S 23.732,30, 16,30z"></path></g></svg>