<?xml version="1.0" encoding="utf-8"?> <!-- Generator: IcoMoon.io --> <!DOCTYPE svg PUBLIC "-//W3C//DTD SVG 1.1//EN" "http://www.w3.org/Graphics/SVG/1.1/DTD/svg11.dtd"> <svg width="32.223751068115234" height="32.22368621826172" viewBox="0 0 32.223751068115234 32.22368621826172" xmlns="http://www.w3.org/2000/svg" xmlns:xlink="http://www.w3.org/1999/xlink" fill="#000000"><g><path d="M 31.342,25.559l-14.392-12.336C 17.62,11.963, 18,10.526, 18,9C 18,4.029, 13.971,0, 9,0 c-0.909,0-1.787,0.135-2.614,0.386l 5.2,5.2c 0.778,0.778, 0.778,2.051,0,2.828l-3.172,3.172 c-0.778,0.778-2.051,0.778-2.828,0L 0.386,6.386C 0.135,7.213,0,8.091,0,9c0,4.971, 4.029,9, 9,9 c 1.526,0, 2.963-0.38, 4.222-1.051l 12.336,14.392c 0.716,0.835, 1.938,0.882, 2.716,0.104l 3.172-3.172 C 32.224,27.497, 32.177,26.274, 31.342,25.559z"></path></g></svg>