<?xml version="1.0" encoding="utf-8"?> <!-- Generator: IcoMoon.io --> <!DOCTYPE svg PUBLIC "-//W3C//DTD SVG 1.1//EN" "http://www.w3.org/Graphics/SVG/1.1/DTD/svg11.dtd"> <svg width="32" height="32" viewBox="0 0 32 32" xmlns="http://www.w3.org/2000/svg" xmlns:xlink="http://www.w3.org/1999/xlink" fill="#000000"><g><path d="M 29.931,12l-1.756,0 l-0.037,0 c-1.099,0-2.062-0.929-2.137-2l0,0C 26,4.292, 21.398,0, 15.65,0l-5.245,0 C 4.662,0, 0.004,4.625,0,10.333l0,11.337 C0,27.379, 4.662,32, 10.406,32l 11.201,0 C 27.355,32, 32,27.379, 32,21.671L 32,14.346 C 32,13.206, 31.080,12, 29.931,12z M 10,8l 6,0 c 1.1,0, 2,0.9, 2,2s-0.9,2-2,2l-6,0 c-1.1,0-2-0.9-2-2S 8.9,8, 10,8 z M 22,24L 10,24 c-1.1,0-2-0.9-2-2s 0.9-2, 2-2l 12,0 c 1.1,0, 2,0.9, 2,2S 23.1,24, 22,24z"></path></g></svg>