<?xml version="1.0" encoding="utf-8"?> <!-- Generator: IcoMoon.io --> <!DOCTYPE svg PUBLIC "-//W3C//DTD SVG 1.1//EN" "http://www.w3.org/Graphics/SVG/1.1/DTD/svg11.dtd"> <svg width="32.03125" height="32" viewBox="0 0 32.03125 32" xmlns="http://www.w3.org/2000/svg" xmlns:xlink="http://www.w3.org/1999/xlink" fill="#000000"><g><path d="M 7.031,14 C 10.897,14 14.031,17.134 14.031,21 C 14.031,24.866 10.897,28 7.031,28 C 3.165,28 0.031,24.866 0.031,21 L 0,20 C 0,12.268 6.268,6 14,6 L 14,10 C 11.329,10 8.818,11.040 6.929,12.929 C 6.565,13.293 6.234,13.679 5.934,14.086 C 6.292,14.030 6.658,14 7.031,14 ZM 25.031,14 C 28.897,14 32.031,17.134 32.031,21 C 32.031,24.866 28.897,28 25.031,28 C 21.165,28 18.031,24.866 18.031,21 L 18,20 C 18,12.268 24.268,6 32,6 L 32,10 C 29.329,10 26.818,11.040 24.929,12.929 C 24.565,13.293 24.233,13.679 23.934,14.086 C 24.292,14.030 24.658,14 25.031,14 Z"></path></g></svg>