<?xml version="1.0" encoding="utf-8"?> <!-- Generator: IcoMoon.io --> <!DOCTYPE svg PUBLIC "-//W3C//DTD SVG 1.1//EN" "http://www.w3.org/Graphics/SVG/1.1/DTD/svg11.dtd"> <svg width="32" height="32" viewBox="0 0 32 32" xmlns="http://www.w3.org/2000/svg" xmlns:xlink="http://www.w3.org/1999/xlink" fill="#000000"><g><path d="M 24,2l-4,0 c-3.308,0-6,2.692-6,6l0,6 L 1.5,14 c-0.825,0-1.5,0.675-1.5,1.5l0,15 c0,0.825, 0.675,1.5, 1.5,1.5l 17,0 c 0.825,0, 1.5-0.675, 1.5-1.5L 20,15.5 c0-0.825-0.675-1.5-1.5-1.5l-0.5,0 l0-6 c0-1.103, 0.897-2, 2-2l 4,0 c 1.103,0, 2,0.897, 2,2l0,6 l 4,0 l0-6 C 30,4.692, 27.308,2, 24,2z M 12,28l-4,0 l 0.87-4.35C 8.345,23.29, 8,22.685, 8,22c0-1.105, 0.895-2, 2-2c 1.105,0, 2,0.895, 2,2 c0,0.685-0.345,1.29-0.87,1.65L 12,28z"></path></g></svg>