<?xml version="1.0" encoding="utf-8"?> <!-- Generator: IcoMoon.io --> <!DOCTYPE svg PUBLIC "-//W3C//DTD SVG 1.1//EN" "http://www.w3.org/Graphics/SVG/1.1/DTD/svg11.dtd"> <svg width="32" height="32" viewBox="0 0 32 32" xmlns="http://www.w3.org/2000/svg" xmlns:xlink="http://www.w3.org/1999/xlink" fill="#000000"><g><path d="M 17.339,22.214l0,3.768 q0,1.196 -0.696,1.196q-0.411,0 -0.804-0.393l0-5.375 q 0.393-0.393 0.804-0.393q 0.696,0 0.696,1.196zM 23.375,22.232l0,0.821 l-1.607,0 l0-0.821 q0-1.214 0.804-1.214t 0.804,1.214zM 6.125,18.339l 1.911,0 l0-1.679 l-5.571,0 l0,1.679 l 1.875,0 l0,10.161 l 1.786,0 l0-10.161 zM 11.268,28.5l 1.589,0 l0-8.821 l-1.589,0 l0,6.75 q-0.536,0.75 -1.018,0.75q-0.321,0 -0.375-0.375q-0.018-0.054 -0.018-0.625l0-6.5 l-1.589,0 l0,6.982 q0,0.875 0.143,1.304 q 0.214,0.661 1.036,0.661q 0.857,0 1.821-1.089l0,0.964 zM 18.929,25.857l0-3.518 q0-1.304 -0.161-1.768q-0.304-1 -1.268-1q-0.893,0 -1.661,0.964l0-3.875 l-1.589,0 l0,11.839 l 1.589,0 l0-0.857 q 0.804,0.982 1.661,0.982q 0.964,0 1.268-0.982q 0.161-0.482 0.161-1.786zM 24.964,25.679l0-0.232 l-1.625,0 q0,0.911 -0.036,1.089q-0.125,0.643 -0.714,0.643q-0.821,0 -0.821-1.232l0-1.554 l 3.196,0 l0-1.839 q0-1.411 -0.482-2.071q-0.696-0.911 -1.893-0.911q-1.214,0 -1.911,0.911 q-0.5,0.661 -0.5,2.071l0,3.089 q0,1.411 0.518,2.071q 0.696,0.911 1.929,0.911q 1.286,0 1.929-0.946q 0.321-0.482 0.375-0.964q 0.036-0.161 0.036-1.036zM 14.107,9.375l0-3.75 q0-1.232 -0.768-1.232t-0.768,1.232l0,3.75 q0,1.25 0.768,1.25t 0.768-1.25zM 26.946,22.786q0,4.179 -0.464,6.25q-0.25,1.054 -1.036,1.768t-1.821,0.821q-3.286,0.375 -9.911,0.375t-9.911-0.375q-1.036-0.107 -1.83-0.821t-1.027-1.768 q-0.464-2 -0.464-6.25q0-4.179 0.464-6.25q 0.25-1.054 1.036-1.768t 1.839-0.839q 3.268-0.357 9.893-0.357t 9.911,0.357q 1.036,0.125 1.83,0.839t 1.027,1.768q 0.464,2 0.464,6.25zM 9.125,0l 1.821,0 l-2.161,7.125l0,4.839 l-1.786,0 l0-4.839 q-0.25-1.321 -1.089-3.786q-0.661-1.839 -1.161-3.339l 1.893,0 l 1.268,4.696zM 15.732,5.946l0,3.125 q0,1.446 -0.5,2.107q-0.661,0.911 -1.893,0.911q-1.196,0 -1.875-0.911 q-0.5-0.679 -0.5-2.107l0-3.125 q0-1.429 0.5-2.089q 0.679-0.911 1.875-0.911q 1.232,0 1.893,0.911q 0.5,0.661 0.5,2.089zM 21.714,3.054l0,8.911 l-1.625,0 l0-0.982 q-0.946,1.107 -1.839,1.107q-0.821,0 -1.054-0.661q-0.143-0.429 -0.143-1.339l0-7.036 l 1.625,0 l0,6.554 q0,0.589 0.018,0.625q 0.054,0.393 0.375,0.393q 0.482,0 1.018-0.768l0-6.804 l 1.625,0 z"></path></g></svg>